<mxfile host="65bd71144e">
    <diagram id="D8w5CgJF9QysZYakpsfg" name="ページ1">
        <mxGraphModel dx="893" dy="787" grid="1" gridSize="10" guides="1" tooltips="1" connect="1" arrows="1" fold="1" page="1" pageScale="1" pageWidth="827" pageHeight="1169" math="0" shadow="0">
            <root>
                <mxCell id="0"/>
                <mxCell id="1" parent="0"/>
                <mxCell id="2" value="" style="sketch=0;points=[[0,0,0],[0.25,0,0],[0.5,0,0],[0.75,0,0],[1,0,0],[0,1,0],[0.25,1,0],[0.5,1,0],[0.75,1,0],[1,1,0],[0,0.25,0],[0,0.5,0],[0,0.75,0],[1,0.25,0],[1,0.5,0],[1,0.75,0]];outlineConnect=0;fontColor=#232F3E;fillColor=#ED7100;strokeColor=#ffffff;dashed=0;verticalLabelPosition=bottom;verticalAlign=top;align=center;html=1;fontSize=12;fontStyle=0;aspect=fixed;shape=mxgraph.aws4.resourceIcon;resIcon=mxgraph.aws4.ec2;" parent="1" vertex="1">
                    <mxGeometry x="320" y="360" width="78" height="78" as="geometry"/>
                </mxCell>
                <mxCell id="3" value="" style="sketch=0;points=[[0,0,0],[0.25,0,0],[0.5,0,0],[0.75,0,0],[1,0,0],[0,1,0],[0.25,1,0],[0.5,1,0],[0.75,1,0],[1,1,0],[0,0.25,0],[0,0.5,0],[0,0.75,0],[1,0.25,0],[1,0.5,0],[1,0.75,0]];outlineConnect=0;fontColor=#232F3E;fillColor=#8C4FFF;strokeColor=#ffffff;dashed=0;verticalLabelPosition=bottom;verticalAlign=top;align=center;html=1;fontSize=12;fontStyle=0;aspect=fixed;shape=mxgraph.aws4.resourceIcon;resIcon=mxgraph.aws4.elasticsearch_service;" parent="1" vertex="1">
                    <mxGeometry x="520" y="360" width="78" height="78" as="geometry"/>
                </mxCell>
                <mxCell id="6" value="" style="shape=image;verticalLabelPosition=bottom;labelBackgroundColor=default;verticalAlign=top;aspect=fixed;imageAspect=0;image=data:image/svg+xml,PHN2ZyB4bWxucz0iaHR0cDovL3d3dy53My5vcmcvMjAwMC9zdmciIGZpbGw9Im5vbmUiIHZpZXdCb3g9IjAgMCAxMDAgMTAwIiBoZWlnaHQ9IjEwMCIgd2lkdGg9IjEwMCI+CjxtYXNrIGhlaWdodD0iMTAwIiB3aWR0aD0iMTAwIiB5PSIwIiB4PSIwIiBtYXNrVW5pdHM9InVzZXJTcGFjZU9uVXNlIiBpZD0ibWFzazAiPgo8cGF0aCBmaWxsPSJ3aGl0ZSIgZD0iTTcwLjkxMTkgOTkuMzE3MUM3Mi40ODY5IDk5LjkzMDcgNzQuMjgyOCA5OS44OTE0IDc1Ljg3MjUgOTkuMTI2NEw5Ni40NjA4IDg5LjIxOTdDOTguNjI0MiA4OC4xNzg3IDEwMCA4NS45ODkyIDEwMCA4My41ODcyVjE2LjQxMzNDMTAwIDE0LjAxMTMgOTguNjI0MyAxMS44MjE4IDk2LjQ2MDkgMTAuNzgwOEw3NS44NzI1IDAuODczNzU2QzczLjc4NjIgLTAuMTMwMTI5IDcxLjM0NDYgMC4xMTU3NiA2OS41MTM1IDEuNDQ2OTVDNjkuMjUyIDEuNjM3MTEgNjkuMDAyOCAxLjg0OTQzIDY4Ljc2OSAyLjA4MzQxTDI5LjM1NTEgMzguMDQxNUwxMi4xODcyIDI1LjAwOTZDMTAuNTg5IDIzLjc5NjUgOC4zNTM2MyAyMy44OTU5IDYuODY5MzMgMjUuMjQ2MUwxLjM2MzAzIDMwLjI1NDlDLTAuNDUyNTUyIDMxLjkwNjQgLTAuNDU0NjMzIDM0Ljc2MjcgMS4zNTg1MyAzNi40MTdMMTYuMjQ3MSA1MC4wMDAxTDEuMzU4NTMgNjMuNTgzMkMtMC40NTQ2MzMgNjUuMjM3NCAtMC40NTI1NTIgNjguMDkzOCAxLjM2MzAzIDY5Ljc0NTNMNi44NjkzMyA3NC43NTQxQzguMzUzNjMgNzYuMTA0MyAxMC41ODkgNzYuMjAzNyAxMi4xODcyIDc0Ljk5MDVMMjkuMzU1MSA2MS45NTg3TDY4Ljc2OSA5Ny45MTY3QzY5LjM5MjUgOTguNTQwNiA3MC4xMjQ2IDk5LjAxMDQgNzAuOTExOSA5OS4zMTcxWk03NS4wMTUyIDI3LjI5ODlMNDUuMTA5MSA1MC4wMDAxTDc1LjAxNTIgNzIuNzAxMlYyNy4yOTg5WiIgY2xpcC1ydWxlPSJldmVub2RkIiBmaWxsLXJ1bGU9ImV2ZW5vZGQiLz4KPC9tYXNrPgo8ZyBtYXNrPSJ1cmwoI21hc2swKSI+CjxwYXRoIGZpbGw9IiMwMDY1QTkiIGQ9Ik05Ni40NjE0IDEwLjc5NjJMNzUuODU2OSAwLjg3NTU0MkM3My40NzE5IC0wLjI3Mjc3MyA3MC42MjE3IDAuMjExNjExIDY4Ljc1IDIuMDgzMzNMMS4yOTg1OCA2My41ODMyQy0wLjUxNTY5MyA2NS4yMzczIC0wLjUxMzYwNyA2OC4wOTM3IDEuMzAzMDggNjkuNzQ1Mkw2LjgxMjcyIDc0Ljc1NEM4LjI5NzkzIDc2LjEwNDIgMTAuNTM0NyA3Ni4yMDM2IDEyLjEzMzggNzQuOTkwNUw5My4zNjA5IDEzLjM2OTlDOTYuMDg2IDExLjMwMjYgMTAwIDEzLjI0NjIgMTAwIDE2LjY2NjdWMTYuNDI3NUMxMDAgMTQuMDI2NSA5OC42MjQ2IDExLjgzNzggOTYuNDYxNCAxMC43OTYyWiIvPgo8ZyBmaWx0ZXI9InVybCgjZmlsdGVyMF9kKSI+CjxwYXRoIGZpbGw9IiMwMDdBQ0MiIGQ9Ik05Ni40NjE0IDg5LjIwMzhMNzUuODU2OSA5OS4xMjQ1QzczLjQ3MTkgMTAwLjI3MyA3MC42MjE3IDk5Ljc4ODQgNjguNzUgOTcuOTE2N0wxLjI5ODU4IDM2LjQxNjlDLTAuNTE1NjkzIDM0Ljc2MjcgLTAuNTEzNjA3IDMxLjkwNjMgMS4zMDMwOCAzMC4yNTQ4TDYuODEyNzIgMjUuMjQ2QzguMjk3OTMgMjMuODk1OCAxMC41MzQ3IDIzLjc5NjQgMTIuMTMzOCAyNS4wMDk1TDkzLjM2MDkgODYuNjMwMUM5Ni4wODYgODguNjk3NCAxMDAgODYuNzUzOCAxMDAgODMuMzMzNFY4My41NzI2QzEwMCA4NS45NzM1IDk4LjYyNDYgODguMTYyMiA5Ni40NjE0IDg5LjIwMzhaIi8+CjwvZz4KPGcgZmlsdGVyPSJ1cmwoI2ZpbHRlcjFfZCkiPgo8cGF0aCBmaWxsPSIjMUY5Q0YwIiBkPSJNNzUuODU3OCA5OS4xMjYzQzczLjQ3MjEgMTAwLjI3NCA3MC42MjE5IDk5Ljc4ODUgNjguNzUgOTcuOTE2NkM3MS4wNTY0IDEwMC4yMjMgNzUgOTguNTg5NSA3NSA5NS4zMjc4VjQuNjcyMTNDNzUgMS40MTAzOSA3MS4wNTY0IC0wLjIyMzEwNiA2OC43NSAyLjA4MzI5QzcwLjYyMTkgMC4yMTE0MDIgNzMuNDcyMSAtMC4yNzM2NjYgNzUuODU3OCAwLjg3MzYzM0w5Ni40NTg3IDEwLjc4MDdDOTguNjIzNCAxMS44MjE3IDEwMCAxNC4wMTEyIDEwMCAxNi40MTMyVjgzLjU4NzFDMTAwIDg1Ljk4OTEgOTguNjIzNCA4OC4xNzg2IDk2LjQ1ODYgODkuMjE5Nkw3NS44NTc4IDk5LjEyNjNaIi8+CjwvZz4KPGcgb3BhY2l0eT0iMC4yNSIgc3R5bGU9Im1peC1ibGVuZC1tb2RlOm92ZXJsYXkiPgo8cGF0aCBmaWxsPSJ1cmwoI3BhaW50MF9saW5lYXIpIiBkPSJNNzAuODUxMSA5OS4zMTcxQzcyLjQyNjEgOTkuOTMwNiA3NC4yMjIxIDk5Ljg5MTMgNzUuODExNyA5OS4xMjY0TDk2LjQgODkuMjE5N0M5OC41NjM0IDg4LjE3ODcgOTkuOTM5MiA4NS45ODkyIDk5LjkzOTIgODMuNTg3MVYxNi40MTMzQzk5LjkzOTIgMTQuMDExMiA5OC41NjM1IDExLjgyMTcgOTYuNDAwMSAxMC43ODA3TDc1LjgxMTcgMC44NzM2OTVDNzMuNzI1NSAtMC4xMzAxOSA3MS4yODM4IDAuMTE1Njk5IDY5LjQ1MjcgMS40NDY4OEM2OS4xOTEyIDEuNjM3MDUgNjguOTQyIDEuODQ5MzcgNjguNzA4MiAyLjA4MzM1TDI5LjI5NDMgMzguMDQxNEwxMi4xMjY0IDI1LjAwOTZDMTAuNTI4MyAyMy43OTY0IDguMjkyODUgMjMuODk1OSA2LjgwODU1IDI1LjI0NkwxLjMwMjI1IDMwLjI1NDhDLTAuNTEzMzM0IDMxLjkwNjQgLTAuNTE1NDE1IDM0Ljc2MjcgMS4yOTc3NSAzNi40MTY5TDE2LjE4NjMgNTBMMS4yOTc3NSA2My41ODMyQy0wLjUxNTQxNSA2NS4yMzc0IC0wLjUxMzMzNCA2OC4wOTM3IDEuMzAyMjUgNjkuNzQ1Mkw2LjgwODU1IDc0Ljc1NEM4LjI5Mjg1IDc2LjEwNDIgMTAuNTI4MyA3Ni4yMDM2IDEyLjEyNjQgNzQuOTkwNUwyOS4yOTQzIDYxLjk1ODZMNjguNzA4MiA5Ny45MTY3QzY5LjMzMTcgOTguNTQwNSA3MC4wNjM4IDk5LjAxMDQgNzAuODUxMSA5OS4zMTcxWk03NC45NTQ0IDI3LjI5ODlMNDUuMDQ4MyA1MEw3NC45NTQ0IDcyLjcwMTJWMjcuMjk4OVoiIGNsaXAtcnVsZT0iZXZlbm9kZCIgZmlsbC1ydWxlPSJldmVub2RkIi8+CjwvZz4KPC9nPgo8ZGVmcz4KPGZpbHRlciBjb2xvci1pbnRlcnBvbGF0aW9uLWZpbHRlcnM9InNSR0IiIGZpbHRlclVuaXRzPSJ1c2VyU3BhY2VPblVzZSIgaGVpZ2h0PSI5Mi4yNDU2IiB3aWR0aD0iMTE2LjcyNyIgeT0iMTUuODI5MSIgeD0iLTguMzk0MTEiIGlkPSJmaWx0ZXIwX2QiPgo8ZmVGbG9vZCByZXN1bHQ9IkJhY2tncm91bmRJbWFnZUZpeCIgZmxvb2Qtb3BhY2l0eT0iMCIvPgo8ZmVDb2xvck1hdHJpeCB2YWx1ZXM9IjAgMCAwIDAgMCAwIDAgMCAwIDAgMCAwIDAgMCAwIDAgMCAwIDEyNyAwIiB0eXBlPSJtYXRyaXgiIGluPSJTb3VyY2VBbHBoYSIvPgo8ZmVPZmZzZXQvPgo8ZmVHYXVzc2lhbkJsdXIgc3RkRGV2aWF0aW9uPSI0LjE2NjY3Ii8+CjxmZUNvbG9yTWF0cml4IHZhbHVlcz0iMCAwIDAgMCAwIDAgMCAwIDAgMCAwIDAgMCAwIDAgMCAwIDAgMC4yNSAwIiB0eXBlPSJtYXRyaXgiLz4KPGZlQmxlbmQgcmVzdWx0PSJlZmZlY3QxX2Ryb3BTaGFkb3ciIGluMj0iQmFja2dyb3VuZEltYWdlRml4IiBtb2RlPSJvdmVybGF5Ii8+CjxmZUJsZW5kIHJlc3VsdD0ic2hhcGUiIGluMj0iZWZmZWN0MV9kcm9wU2hhZG93IiBpbj0iU291cmNlR3JhcGhpYyIgbW9kZT0ibm9ybWFsIi8+CjwvZmlsdGVyPgo8ZmlsdGVyIGNvbG9yLWludGVycG9sYXRpb24tZmlsdGVycz0ic1JHQiIgZmlsdGVyVW5pdHM9InVzZXJTcGFjZU9uVXNlIiBoZWlnaHQ9IjExNi4xNTEiIHdpZHRoPSI0Ny45MTY3IiB5PSItOC4wNzU1OCIgeD0iNjAuNDE2NyIgaWQ9ImZpbHRlcjFfZCI+CjxmZUZsb29kIHJlc3VsdD0iQmFja2dyb3VuZEltYWdlRml4IiBmbG9vZC1vcGFjaXR5PSIwIi8+CjxmZUNvbG9yTWF0cml4IHZhbHVlcz0iMCAwIDAgMCAwIDAgMCAwIDAgMCAwIDAgMCAwIDAgMCAwIDAgMTI3IDAiIHR5cGU9Im1hdHJpeCIgaW49IlNvdXJjZUFscGhhIi8+CjxmZU9mZnNldC8+CjxmZUdhdXNzaWFuQmx1ciBzdGREZXZpYXRpb249IjQuMTY2NjciLz4KPGZlQ29sb3JNYXRyaXggdmFsdWVzPSIwIDAgMCAwIDAgMCAwIDAgMCAwIDAgMCAwIDAgMCAwIDAgMCAwLjI1IDAiIHR5cGU9Im1hdHJpeCIvPgo8ZmVCbGVuZCByZXN1bHQ9ImVmZmVjdDFfZHJvcFNoYWRvdyIgaW4yPSJCYWNrZ3JvdW5kSW1hZ2VGaXgiIG1vZGU9Im92ZXJsYXkiLz4KPGZlQmxlbmQgcmVzdWx0PSJzaGFwZSIgaW4yPSJlZmZlY3QxX2Ryb3BTaGFkb3ciIGluPSJTb3VyY2VHcmFwaGljIiBtb2RlPSJub3JtYWwiLz4KPC9maWx0ZXI+CjxsaW5lYXJHcmFkaWVudCBncmFkaWVudFVuaXRzPSJ1c2VyU3BhY2VPblVzZSIgeTI9Ijk5Ljc0MjMiIHgyPSI0OS45MzkyIiB5MT0iMC4yNTc4MTIiIHgxPSI0OS45MzkyIiBpZD0icGFpbnQwX2xpbmVhciI+CjxzdG9wIHN0b3AtY29sb3I9IndoaXRlIi8+CjxzdG9wIHN0b3Atb3BhY2l0eT0iMCIgc3RvcC1jb2xvcj0id2hpdGUiIG9mZnNldD0iMSIvPgo8L2xpbmVhckdyYWRpZW50Pgo8L2RlZnM+Cjwvc3ZnPg==;" parent="1" vertex="1">
                    <mxGeometry x="120" y="360" width="80" height="80" as="geometry"/>
                </mxCell>
                <mxCell id="7" value="" style="endArrow=classic;html=1;exitX=1;exitY=0.5;exitDx=0;exitDy=0;jumpSize=6;strokeWidth=3;" parent="1" source="6" edge="1">
                    <mxGeometry width="50" height="50" relative="1" as="geometry">
                        <mxPoint x="410" y="430" as="sourcePoint"/>
                        <mxPoint x="320" y="400" as="targetPoint"/>
                    </mxGeometry>
                </mxCell>
                <mxCell id="8" value="" style="endArrow=classic;html=1;entryX=0;entryY=0.5;entryDx=0;entryDy=0;entryPerimeter=0;strokeWidth=3;" parent="1" source="2" target="3" edge="1">
                    <mxGeometry width="50" height="50" relative="1" as="geometry">
                        <mxPoint x="410" y="430" as="sourcePoint"/>
                        <mxPoint x="460" y="380" as="targetPoint"/>
                    </mxGeometry>
                </mxCell>
                <UserObject label="VSCode" placeholders="1" name="Variable" id="9">
                    <mxCell style="text;html=1;strokeColor=none;fillColor=none;align=center;verticalAlign=middle;whiteSpace=wrap;overflow=hidden;fontSize=16;" parent="1" vertex="1">
                        <mxGeometry x="120" y="310" width="80" height="20" as="geometry"/>
                    </mxCell>
                </UserObject>
                <UserObject label="EC2" placeholders="1" name="Variable" id="10">
                    <mxCell style="text;html=1;strokeColor=none;fillColor=none;align=center;verticalAlign=middle;whiteSpace=wrap;overflow=hidden;fontSize=16;" parent="1" vertex="1">
                        <mxGeometry x="320" y="310" width="80" height="20" as="geometry"/>
                    </mxCell>
                </UserObject>
                <UserObject label="OpenSearch&lt;div&gt;Serverless&lt;/div&gt;" placeholders="1" name="Variable" id="12">
                    <mxCell style="text;html=1;strokeColor=none;fillColor=none;align=center;verticalAlign=middle;whiteSpace=wrap;overflow=hidden;fontSize=16;" parent="1" vertex="1">
                        <mxGeometry x="509" y="300" width="100" height="40" as="geometry"/>
                    </mxCell>
                </UserObject>
                <mxCell id="13" value="" style="sketch=0;points=[[0,0,0],[0.25,0,0],[0.5,0,0],[0.75,0,0],[1,0,0],[0,1,0],[0.25,1,0],[0.5,1,0],[0.75,1,0],[1,1,0],[0,0.25,0],[0,0.5,0],[0,0.75,0],[1,0.25,0],[1,0.5,0],[1,0.75,0]];outlineConnect=0;fontColor=#232F3E;fillColor=#01A88D;strokeColor=#ffffff;dashed=0;verticalLabelPosition=bottom;verticalAlign=top;align=center;html=1;fontSize=12;fontStyle=0;aspect=fixed;shape=mxgraph.aws4.resourceIcon;resIcon=mxgraph.aws4.bedrock;" vertex="1" parent="1">
                    <mxGeometry x="520" y="520" width="78" height="78" as="geometry"/>
                </mxCell>
                <UserObject label="Bedrock" placeholders="1" name="Variable" id="15">
                    <mxCell style="text;html=1;strokeColor=none;fillColor=none;align=center;verticalAlign=middle;whiteSpace=wrap;overflow=hidden;fontSize=16;" vertex="1" parent="1">
                        <mxGeometry x="520" y="630" width="80" height="20" as="geometry"/>
                    </mxCell>
                </UserObject>
                <mxCell id="16" value="" style="endArrow=classic;html=1;entryX=-0.077;entryY=0.513;entryDx=0;entryDy=0;entryPerimeter=0;strokeWidth=3;exitX=0.5;exitY=1;exitDx=0;exitDy=0;exitPerimeter=0;" edge="1" parent="1" source="2" target="13">
                    <mxGeometry width="50" height="50" relative="1" as="geometry">
                        <mxPoint x="408" y="409" as="sourcePoint"/>
                        <mxPoint x="530" y="409" as="targetPoint"/>
                    </mxGeometry>
                </mxCell>
                <mxCell id="17" value="" style="endArrow=classic;html=1;entryX=0.5;entryY=0;entryDx=0;entryDy=0;entryPerimeter=0;strokeWidth=3;exitX=0.5;exitY=1;exitDx=0;exitDy=0;exitPerimeter=0;" edge="1" parent="1" source="3" target="13">
                    <mxGeometry width="50" height="50" relative="1" as="geometry">
                        <mxPoint x="418" y="419" as="sourcePoint"/>
                        <mxPoint x="540" y="419" as="targetPoint"/>
                    </mxGeometry>
                </mxCell>
            </root>
        </mxGraphModel>
    </diagram>
</mxfile>